HIERARCHY
ROOT hip
{
	OFFSET 0.000000 0.000000 0.000000
	CHANNELS 6 Xposition Yposition Zposition Xrotation Zrotation Yrotation 
	JOINT abdomen
	{
		OFFSET 0.000000 3.422050 0.000000
		CHANNELS 3 Xrotation Zrotation Yrotation 
		JOINT chest
		{
			OFFSET 0.000000 8.486693 -0.684411
			CHANNELS 3 Xrotation Zrotation Yrotation 
			JOINT neck
			{
				OFFSET 0.000000 10.266162 -0.273764
				CHANNELS 3 Xrotation Zrotation Yrotation 
				JOINT head
				{
					OFFSET 0.000000 3.148285 0.000000
					CHANNELS 3 Xrotation Zrotation Yrotation 
					End Site
					{
						OFFSET 0.000000 3.148289 0.000000
					}
				}
			}
			JOINT lCollar
			{
				OFFSET 3.422053 6.707223 -0.821293
				CHANNELS 3 Yrotation Zrotation Xrotation 
				JOINT lShldr
				{
					OFFSET 3.285171 0.000000 0.000000
					CHANNELS 3 Zrotation Yrotation Xrotation 
					JOINT lForeArm
					{
						OFFSET 10.129278 0.000000 0.000000
						CHANNELS 3 Yrotation Zrotation Xrotation 
						JOINT lHand
						{
							OFFSET 8.486692 0.000000 0.000000
							CHANNELS 3 Zrotation Yrotation Xrotation 
							End Site
							{
								OFFSET 4.106464 0.000000 0.000000
							}
						}
					}
				}
			}
			JOINT rCollar
			{
				OFFSET -3.558935 6.707223 -0.821293
				CHANNELS 3 Yrotation Zrotation Xrotation 
				JOINT rShldr
				{
					OFFSET -3.148289 0.000000 0.000000
					CHANNELS 3 Zrotation Yrotation Xrotation 
					JOINT rForeArm
					{
						OFFSET -10.266159 0.000000 0.000000
						CHANNELS 3 Yrotation Zrotation Xrotation 
						JOINT rHand
						{
							OFFSET -8.349810 0.000000 0.000000
							CHANNELS 3 Zrotation Yrotation Xrotation 
							End Site
							{
								OFFSET -4.106464 0.000000 0.000000
							}
						}
					}
				}
			}
		}
	}
	JOINT lThigh
	{
		OFFSET 5.338403 -1.642589 1.368821
		CHANNELS 3 Xrotation Zrotation Yrotation 
		JOINT lShin
		{
			OFFSET -2.053232 -20.121670 0.000000
			CHANNELS 3 Xrotation Zrotation Yrotation 
			JOINT lFoot
			{
				OFFSET 0.000000 -19.300380 -1.231939
				CHANNELS 3 Xrotation Yrotation Zrotation 
				End Site
				{
					OFFSET 0.000000 -2.463878 4.653993
				}
			}
		}
	}
	JOINT rThigh
	{
		OFFSET -5.338403 -1.642589 1.368821
		CHANNELS 3 Xrotation Zrotation Yrotation 
		JOINT rShin
		{
			OFFSET 2.053232 -20.121670 0.000000
			CHANNELS 3 Xrotation Zrotation Yrotation 
			JOINT rFoot
			{
				OFFSET 0.000000 -19.300380 -1.231939
				CHANNELS 3 Xrotation Yrotation Zrotation 
				End Site
				{
					OFFSET 0.000000 -2.463878 4.653993
				}
			}
		}
	}
}
MOTION
Frames: 18
Frame Time: 0.033333
0.000000 43.528500 0.000000 0.000000 0.000000 0.000000 0.000000 0.000000 0.000000 0.000000 0.000000 0.000000 0.000000 0.000000 0.000000 0.000000 0.000000 0.000000 0.000000 0.000000 0.000000 0.000000 0.000000 0.000000 0.000000 0.000000 0.000000 0.000000 0.000000 0.000000 0.000000 0.000000 0.000000 0.000000 0.000000 0.000000 0.000000 0.000000 0.000000 0.000000 0.000000 0.000000 0.000000 0.000000 0.000000 0.000000 0.000000 0.000000 0.000000 0.000000 0.000000 0.000000 0.000000 0.000000 0.000000 0.000000 0.000000 0.000000 0.000000 0.000000 
19.995884 5.185780 0.000000 -90.001877 0.000000 0.000000 27.309864 -0.136140 -0.128441 11.295275 -0.061467 -0.675525 18.997522 0.000000 0.000000 5.998535 0.000000 0.000000 12.106252 -0.135628 3.547492 -75.638954 30.113106 1.212071 -74.918228 0.410550 33.968296 -8.735351 -0.324455 26.380735 8.476472 5.874340 -1.287205 66.814972 22.008394 30.856817 60.979130 22.044415 -37.090683 -25.182186 -12.244594 -0.276386 1.182752 10.188717 -25.368439 5.454007 -5.618096 -0.329152 -5.708158 3.429813 11.097742 -47.265648 -21.511728 34.793827 100.460136 1.570817 0.310180 50.967587 36.833046 -9.500953 
19.995884 5.185780 0.000000 -90.001884 0.000000 0.000000 27.663664 -0.134116 -0.129239 11.857166 -0.040752 -0.671855 19.853535 0.000000 0.000000 6.569485 0.000000 0.000000 11.900729 -0.677561 3.381350 -75.182541 30.025492 1.388833 -74.790077 0.599226 33.968204 -8.208869 -0.842250 26.071451 8.263777 5.407151 -1.766752 67.062454 21.879730 30.983316 62.033283 21.744980 -37.170540 -25.618032 -11.985952 0.013162 1.182752 10.188717 -25.368443 5.454007 -5.618097 -0.329152 -5.708158 3.429813 11.097743 -47.664684 -22.241537 34.313137 100.460136 1.570817 0.310180 51.655457 36.634106 -10.800443 
19.995884 5.185780 0.000000 -90.001862 0.000000 0.000000 28.017502 -0.132088 -0.130023 12.419224 -0.020068 -0.667982 20.710121 0.000000 0.000000 7.140606 0.000000 0.000000 11.693532 -1.219072 3.213183 -74.726784 29.936647 1.564659 -74.661903 0.787909 33.967686 -7.679195 -1.357473 25.757177 8.047217 4.941532 -2.247909 67.309433 21.750559 31.109125 63.085915 21.443918 -37.244389 -26.052238 -11.725101 0.300492 1.182752 10.188716 -25.368439 5.454007 -5.618096 -0.329152 -5.708158 3.429813 11.097742 -48.059574 -22.975140 33.834946 100.460136 1.570817 0.310180 52.336422 36.422508 -12.094769 
19.995884 5.185780 0.000000 -90.001877 0.000000 0.000000 28.371367 -0.130054 -0.130795 12.981414 0.000582 -0.663904 21.567184 0.000000 0.000000 7.711868 0.000000 0.000000 11.484641 -1.760118 3.042970 -74.271683 29.846579 1.739521 -74.533707 0.976601 33.966743 -7.146311 -1.870011 25.437918 7.826799 4.477563 -2.730696 67.555878 21.620874 31.234213 64.136894 21.141384 -37.312183 -26.484795 -11.462073 0.585591 1.182751 10.188716 -25.368439 5.454007 -5.618096 -0.329152 -5.708158 3.429813 11.097742 -48.450272 -23.712345 33.359253 100.460136 1.570817 0.310180 53.009979 36.198456 -13.383395 
19.995884 5.185780 0.000000 -90.001884 0.000000 0.000000 28.725260 -0.128016 -0.131555 13.543718 0.021195 -0.659624 22.424643 0.000000 0.000000 8.283244 0.000000 0.000000 11.274028 -2.300659 2.870690 -73.817299 29.755316 1.913419 -74.405510 1.165297 33.965382 -6.610190 -2.379747 25.113667 7.602532 4.015319 -3.215132 67.801819 21.490688 31.358601 65.186089 20.837528 -37.373943 -26.915682 -11.196903 0.868443 1.182752 10.188717 -25.368439 5.454007 -5.618096 -0.329152 -5.708158 3.429813 11.097742 -48.836750 -24.452991 32.886040 100.460136 1.570817 0.310180 53.675617 35.962101 -14.665794 
19.995884 5.185780 0.000000 -90.001877 0.000000 0.000000 29.079180 -0.125973 -0.132302 14.106101 0.041768 -0.655140 23.282381 0.000000 0.000000 8.854705 0.000000 0.000000 11.061660 -2.840649 2.696317 -73.363579 29.662836 2.086328 -74.277283 1.353995 33.963593 -6.070813 -2.886569 24.784430 7.374425 3.554879 -3.701233 68.047241 21.360001 31.482279 66.233383 20.532509 -37.429653 -27.344902 -10.929621 1.149036 1.182751 10.188716 -25.368439 5.454007 -5.618096 -0.329152 -5.708158 3.429813 11.097742 -49.218956 -25.196875 32.415279 100.460136 1.570817 0.310180 54.332909 35.713680 -15.941487 
19.995884 5.185780 0.000000 -90.001877 0.000000 0.000000 29.433109 -0.123925 -0.133037 14.668545 0.062298 -0.650455 24.140308 0.000000 0.000000 9.426222 0.000000 0.000000 10.847513 -3.380047 2.519832 -72.910591 29.569178 2.258240 -74.149055 1.542686 33.961391 -5.528160 -3.390360 24.450197 7.142481 3.096317 -4.189016 68.292160 21.228823 31.605253 67.278656 20.226477 -37.479313 -27.772440 -10.660267 1.427358 1.182752 10.188717 -25.368439 5.454007 -5.618096 -0.329152 -5.708158 3.429813 11.097741 -49.596851 -25.943823 31.946953 100.460136 1.570817 0.310180 54.981373 35.453396 -17.209986 
19.995884 5.185780 0.000000 -90.001877 0.000000 0.000000 29.787046 -0.121873 -0.133758 15.231016 0.082782 -0.645567 24.998335 0.000000 0.000000 9.997768 0.000000 0.000000 10.631563 -3.918810 2.341212 -72.458344 29.474329 2.429141 -74.020790 1.731377 33.958755 -4.982215 -3.891007 24.110983 6.906713 2.639711 -4.678496 68.536552 21.097151 31.727510 68.321785 19.919596 -37.522942 -28.198278 -10.388867 1.703396 1.182752 10.188717 -25.368439 5.454007 -5.618096 -0.329152 -5.708158 3.429813 11.097742 -49.970428 -26.693647 31.481049 100.460136 1.570817 0.310180 55.620602 35.181480 -18.470846 
19.995884 5.185780 0.000000 -90.001877 0.000000 0.000000 30.140976 -0.119816 -0.134467 15.793488 0.103217 -0.640480 25.856365 0.000000 0.000000 10.569312 0.000000 0.000000 10.413782 -4.456895 2.160434 -72.006836 29.378321 2.599021 -73.892509 1.920059 33.955704 -4.432962 -4.388397 23.766785 6.667128 2.185136 -5.169689 68.780426 20.964998 31.849056 69.362656 19.612024 -37.560555 -28.622423 -10.115465 1.977141 1.182752 10.188717 -25.368443 5.454008 -5.618097 -0.329152 -5.708158 3.429813 11.097743 -50.339626 -27.446165 31.017521 100.460136 1.570817 0.310180 56.250225 34.898201 -19.723661 
19.995884 5.185780 0.000000 -90.001884 0.000000 0.000000 30.494904 -0.117755 -0.135164 16.355934 0.123600 -0.635191 26.714293 0.000000 0.000000 11.140831 0.000000 0.000000 10.194139 -4.994257 1.977474 -71.556107 29.281147 2.767859 -73.764214 2.108734 33.952229 -3.880389 -4.882413 23.417610 6.423739 1.732670 -5.662609 69.023788 20.832365 31.969902 70.401154 19.303915 -37.592152 -29.044865 -9.840094 2.248583 1.182751 10.188717 -25.368441 5.454007 -5.618096 -0.329152 -5.708158 3.429813 11.097742 -50.704418 -28.201183 30.556358 100.460136 1.570817 0.310180 56.869869 34.603802 -20.968025 
19.995884 5.185780 0.000000 -90.001877 0.000000 0.000000 30.848820 -0.115690 -0.135848 16.918333 0.143928 -0.629704 27.572035 0.000000 0.000000 11.712295 0.000000 0.000000 9.972608 -5.530854 1.792308 -71.106163 29.182827 2.935645 -73.635872 2.297399 33.948326 -3.324485 -5.372945 23.063463 6.176554 1.282387 -6.157266 69.266624 20.699257 32.090027 71.437172 18.995415 -37.617775 -29.465588 -9.562785 2.517710 1.182751 10.188717 -25.368441 5.454007 -5.618096 -0.329152 -5.708158 3.429813 11.097742 -51.064766 -28.958523 30.097515 100.460136 1.570817 0.310180 57.479206 34.298569 -22.203583 
19.995884 5.185780 0.000000 -90.001877 0.000000 0.000000 31.202723 -0.113621 -0.136518 17.480652 0.164199 -0.624018 28.429485 0.000000 0.000000 12.283669 0.000000 0.000000 9.749162 -6.066641 1.604912 -70.657021 29.083370 3.102371 -73.507523 2.486045 33.944000 -2.765241 -5.859878 22.704357 5.925585 0.834364 -6.653671 69.508934 20.565672 32.209435 72.470604 18.686708 -37.637463 -29.884598 -9.283579 2.784515 1.182752 10.188717 -25.368439 5.454007 -5.618096 -0.329152 -5.708158 3.429813 11.097742 -51.420639 -29.717989 29.640963 100.460136 1.570817 0.310180 58.077911 33.982769 -23.429983 
19.995884 5.185780 0.000000 -90.001877 0.000000 0.000000 31.556581 -0.111548 -0.137176 18.042866 0.184409 -0.618135 29.286551 0.000000 0.000000 12.854931 0.000000 0.000000 9.523771 -6.601576 1.415262 -70.208679 28.982780 3.268022 -73.379143 2.674682 33.939262 -2.202652 -6.343102 22.340311 5.670846 0.388674 -7.151836 69.750748 20.431631 32.328140 73.501335 18.377916 -37.651218 -30.301878 -9.002505 3.048990 1.182752 10.188716 -25.368437 5.454007 -5.618096 -0.329152 -5.708158 3.429813 11.097742 -51.772011 -30.479408 29.186666 100.460144 1.570817 0.310180 58.665710 33.656700 -24.646914 
19.995884 5.185780 0.000000 -90.001862 0.000000 0.000000 31.910419 -0.109471 -0.137821 18.604944 0.204555 -0.612055 30.143135 0.000000 0.000000 13.426053 0.000000 0.000000 9.296409 -7.135615 1.223334 -69.761162 28.881079 3.432586 -73.250710 2.863295 33.934082 -1.636713 -6.822502 21.971325 5.412350 -0.054605 -7.651772 69.992020 20.297131 32.446129 74.529251 18.069214 -37.659107 -30.717442 -8.719606 3.311126 1.182751 10.188717 -25.368439 5.454007 -5.618096 -0.329152 -5.708158 3.429813 11.097742 -52.118816 -31.242577 28.734570 100.460136 1.570817 0.310180 59.242344 33.320663 -25.854086 
19.995884 5.185780 0.000000 -90.001877 0.000000 0.000000 32.264214 -0.107390 -0.138454 19.166862 0.224635 -0.605780 30.999151 0.000000 0.000000 13.997003 0.000000 0.000000 9.067043 -7.668714 1.029101 -69.314499 28.778275 3.596055 -73.122261 3.051891 33.928482 -1.067422 -7.297972 21.597427 5.150109 -0.495401 -8.153482 70.232773 20.162167 32.563396 75.554260 17.760756 -37.661171 -31.131258 -8.434914 3.570918 1.182752 10.188717 -25.368439 5.454007 -5.618096 -0.329152 -5.708158 3.429813 11.097742 -52.461052 -32.007320 28.284645 100.460136 1.570817 0.310180 59.807594 32.974976 -27.051249 
19.995884 5.185780 0.000000 -90.001877 0.000000 0.000000 31.910419 -0.109471 -0.137821 18.604944 0.204555 -0.612055 30.143131 0.000000 0.000000 13.426052 0.000000 0.000000 9.296409 -7.135616 1.223334 -69.761162 28.881079 3.432586 -73.250710 2.863297 33.934078 -1.636712 -6.822502 21.971323 5.412350 -0.054605 -7.651772 69.992020 20.297127 32.446125 74.529259 18.069221 -37.659111 -30.717434 -8.719605 3.311126 1.182752 10.188717 -25.368441 5.454007 -5.618096 -0.329152 -5.708158 3.429813 11.097742 -52.118813 -31.242577 28.734570 100.460136 1.570817 0.310180 59.242355 33.320671 -25.854094 
19.995884 5.185780 0.000000 -90.001877 0.000000 0.000000 31.556581 -0.111548 -0.137176 18.042866 0.184409 -0.618135 29.286547 0.000000 0.000000 12.854931 0.000000 0.000000 9.523771 -6.601576 1.415262 -70.208679 28.982784 3.268023 -73.379135 2.674681 33.939255 -2.202653 -6.343102 22.340313 5.670846 0.388675 -7.151836 69.750748 20.431631 32.328140 73.501335 18.377914 -37.651218 -30.301878 -9.002506 3.048990 1.182752 10.188717 -25.368439 5.454007 -5.618096 -0.329152 -5.708158 3.429813 11.097742 -51.771999 -30.479404 29.186659 100.460136 1.570817 0.310180 58.665710 33.656700 -24.646915 
